<?xml version="1.0" encoding="UTF-8" standalone="no"?>
<svg
   width="314.52188pt"
   height="123.80688pt"
   viewBox="0 0 314.52188 123.80687"
   version="1.1"
   id="svg76"
   sodipodi:docname="qrc_fidelity.svg"
   inkscape:version="1.3.2 (091e20e, 2023-11-25, custom)"
   xmlns:inkscape="http://www.inkscape.org/namespaces/inkscape"
   xmlns:sodipodi="http://sodipodi.sourceforge.net/DTD/sodipodi-0.dtd"
   xmlns:xlink="http://www.w3.org/1999/xlink"
   xmlns="http://www.w3.org/2000/svg"
   xmlns:svg="http://www.w3.org/2000/svg"
   xmlns:rdf="http://www.w3.org/1999/02/22-rdf-syntax-ns#"
   xmlns:cc="http://creativecommons.org/ns#"
   xmlns:dc="http://purl.org/dc/elements/1.1/">
  <sodipodi:namedview
     id="namedview76"
     pagecolor="#ffffff"
     bordercolor="#000000"
     borderopacity="0.25"
     inkscape:showpageshadow="2"
     inkscape:pageopacity="0.0"
     inkscape:pagecheckerboard="0"
     inkscape:deskcolor="#d1d1d1"
     inkscape:document-units="pt"
     inkscape:zoom="1.600038"
     inkscape:cx="192.18293"
     inkscape:cy="113.7473"
     inkscape:window-width="1920"
     inkscape:window-height="1010"
     inkscape:window-x="1913"
     inkscape:window-y="-6"
     inkscape:window-maximized="1"
     inkscape:current-layer="figure_1" />
  <metadata
     id="metadata1">
    <rdf:RDF>
      <cc:Work>
        <dc:type
           rdf:resource="http://purl.org/dc/dcmitype/StillImage" />
        <dc:date>2024-08-24T16:30:33.564650</dc:date>
        <dc:format>image/svg+xml</dc:format>
        <dc:creator>
          <cc:Agent>
            <dc:title>Matplotlib v3.9.2, https://matplotlib.org/</dc:title>
          </cc:Agent>
        </dc:creator>
      </cc:Work>
    </rdf:RDF>
  </metadata>
  <defs
     id="defs1">
    <style
       type="text/css"
       id="style1">*{stroke-linejoin: round; stroke-linecap: butt}</style>
  </defs>
  <g
     id="figure_1"
     transform="translate(-7.498438,-7.507813)">
    <g
       id="axes_1">
      <g
         id="patch_2">
        <path
           d="M 42.620313,100.95844 H 321.62031 V 17.798438 H 42.620313 Z"
           style="fill:#ffffff"
           id="path2" />
      </g>
      <g
         id="matplotlib.axis_1">
        <g
           id="xtick_1">
          <g
             id="line2d_1">
            <defs
               id="defs2">
              <path
                 id="mcbf9130591"
                 d="M 0,0 V 3.5"
                 style="stroke:#000000;stroke-width:0.8" />
            </defs>
            <g
               id="g2">
              <use
                 xlink:href="#mcbf9130591"
                 x="55.302132"
                 y="100.95844"
                 style="stroke:#000000;stroke-width:0.8"
                 id="use2" />
            </g>
          </g>
          <g
             id="text_1">
            <!-- 3 -->
            <g
               transform="matrix(0.1,0,0,-0.1,52.120881,115.55688)"
               id="g3">
              <defs
                 id="defs3">
                <path
                   id="DejaVuSans-33"
                   d="m 2597,2516 q 453,-97 707,-404 255,-306 255,-756 0,-690 -475,-1069 -475,-378 -1350,-378 -293,0 -604,58 -311,58 -642,174 v 609 q 262,-153 574,-231 313,-78 654,-78 593,0 904,234 311,234 311,681 0,413 -289,645 -289,233 -804,233 h -544 v 519 h 569 q 465,0 712,186 247,186 247,536 0,359 -255,551 -254,193 -729,193 -260,0 -557,-57 -297,-56 -653,-174 v 562 q 360,100 674,150 314,50 592,50 719,0 1137,-327 419,-326 419,-882 0,-388 -222,-655 -222,-267 -631,-370 z"
                   transform="scale(0.015625)" />
              </defs>
              <use
                 xlink:href="#DejaVuSans-33"
                 id="use3" />
            </g>
          </g>
        </g>
        <g
           id="xtick_2">
          <g
             id="line2d_2">
            <g
               id="g4">
              <use
                 xlink:href="#mcbf9130591"
                 x="73.419014"
                 y="100.95844"
                 style="stroke:#000000;stroke-width:0.8"
                 id="use4" />
            </g>
          </g>
          <g
             id="text_2">
            <!-- 4 -->
            <g
               transform="matrix(0.1,0,0,-0.1,70.237764,115.55688)"
               id="g5">
              <defs
                 id="defs4">
                <path
                   id="DejaVuSans-34"
                   d="M 2419,4116 825,1625 h 1594 z m -166,550 h 794 V 1625 h 666 V 1100 H 3047 V 0 H 2419 V 1100 H 313 v 609 z"
                   transform="scale(0.015625)" />
              </defs>
              <use
                 xlink:href="#DejaVuSans-34"
                 id="use5" />
            </g>
          </g>
        </g>
        <g
           id="xtick_3">
          <g
             id="line2d_3">
            <g
               id="g6">
              <use
                 xlink:href="#mcbf9130591"
                 x="91.535896"
                 y="100.95844"
                 style="stroke:#000000;stroke-width:0.8"
                 id="use6" />
            </g>
          </g>
          <g
             id="text_3">
            <!-- 5 -->
            <g
               transform="matrix(0.1,0,0,-0.1,88.354647,115.55688)"
               id="g7">
              <defs
                 id="defs6">
                <path
                   id="DejaVuSans-35"
                   d="M 691,4666 H 3169 V 4134 H 1269 V 2991 q 137,47 274,70 138,23 276,23 781,0 1237,-428 457,-428 457,-1159 Q 3513,744 3044,326 2575,-91 1722,-91 1428,-91 1123,-41 819,9 494,109 v 635 q 281,-153 581,-228 300,-75 634,-75 541,0 856,284 316,284 316,772 0,487 -316,771 -315,285 -856,285 -253,0 -505,-56 -251,-56 -513,-175 z"
                   transform="scale(0.015625)" />
              </defs>
              <use
                 xlink:href="#DejaVuSans-35"
                 id="use7" />
            </g>
          </g>
        </g>
        <g
           id="xtick_4">
          <g
             id="line2d_4">
            <g
               id="g8">
              <use
                 xlink:href="#mcbf9130591"
                 x="109.65278"
                 y="100.95844"
                 style="stroke:#000000;stroke-width:0.8"
                 id="use8" />
            </g>
          </g>
          <g
             id="text_4">
            <!-- 6 -->
            <g
               transform="matrix(0.1,0,0,-0.1,106.47153,115.55688)"
               id="g9">
              <defs
                 id="defs8">
                <path
                   id="DejaVuSans-36"
                   d="m 2113,2584 q -425,0 -674,-291 -248,-290 -248,-796 0,-503 248,-796 249,-292 674,-292 425,0 673,292 248,293 248,796 0,506 -248,796 -248,291 -673,291 z m 1253,1979 v -575 q -238,112 -480,171 -242,60 -480,60 -625,0 -955,-422 -329,-422 -376,-1275 184,272 462,417 279,145 613,145 703,0 1111,-427 408,-426 408,-1160 0,-719 -425,-1154 -425,-434 -1131,-434 -810,0 -1238,620 -428,621 -428,1799 0,1106 525,1764 525,658 1409,658 238,0 480,-47 242,-47 505,-140 z"
                   transform="scale(0.015625)" />
              </defs>
              <use
                 xlink:href="#DejaVuSans-36"
                 id="use9" />
            </g>
          </g>
        </g>
        <g
           id="xtick_5">
          <g
             id="line2d_5">
            <g
               id="g10">
              <use
                 xlink:href="#mcbf9130591"
                 x="127.76966"
                 y="100.95844"
                 style="stroke:#000000;stroke-width:0.8"
                 id="use10" />
            </g>
          </g>
          <g
             id="text_5">
            <!-- 7 -->
            <g
               transform="matrix(0.1,0,0,-0.1,124.58841,115.55688)"
               id="g11">
              <defs
                 id="defs10">
                <path
                   id="DejaVuSans-37"
                   d="M 525,4666 H 3525 V 4397 L 1831,0 H 1172 L 2766,4134 H 525 Z"
                   transform="scale(0.015625)" />
              </defs>
              <use
                 xlink:href="#DejaVuSans-37"
                 id="use11" />
            </g>
          </g>
        </g>
        <g
           id="xtick_6">
          <g
             id="line2d_6">
            <g
               id="g12">
              <use
                 xlink:href="#mcbf9130591"
                 x="145.88655"
                 y="100.95844"
                 style="stroke:#000000;stroke-width:0.8"
                 id="use12" />
            </g>
          </g>
          <g
             id="text_6">
            <!-- 8 -->
            <g
               transform="matrix(0.1,0,0,-0.1,142.7053,115.55688)"
               id="g13">
              <defs
                 id="defs12">
                <path
                   id="DejaVuSans-38"
                   d="m 2034,2216 q -450,0 -708,-241 -257,-241 -257,-662 0,-422 257,-663 258,-241 708,-241 450,0 709,242 260,243 260,662 0,421 -258,662 -257,241 -711,241 z m -631,268 q -406,100 -633,378 -226,279 -226,679 0,559 398,884 399,325 1092,325 697,0 1094,-325 397,-325 397,-884 0,-400 -227,-679 -226,-278 -629,-378 456,-106 710,-416 255,-309 255,-755 Q 3634,634 3220,271 2806,-91 2034,-91 1263,-91 848,271 434,634 434,1313 q 0,446 256,755 257,310 713,416 z m -231,997 q 0,-362 226,-565 227,-203 636,-203 407,0 636,203 230,203 230,565 0,363 -230,566 -229,203 -636,203 -409,0 -636,-203 -226,-203 -226,-566 z"
                   transform="scale(0.015625)" />
              </defs>
              <use
                 xlink:href="#DejaVuSans-38"
                 id="use13" />
            </g>
          </g>
        </g>
        <g
           id="xtick_7">
          <g
             id="line2d_7">
            <g
               id="g14">
              <use
                 xlink:href="#mcbf9130591"
                 x="164.00343"
                 y="100.95844"
                 style="stroke:#000000;stroke-width:0.8"
                 id="use14" />
            </g>
          </g>
          <g
             id="text_7">
            <!-- 9 -->
            <g
               transform="matrix(0.1,0,0,-0.1,160.82218,115.55688)"
               id="g15">
              <defs
                 id="defs14">
                <path
                   id="DejaVuSans-39"
                   d="m 703,97 v 575 q 238,-113 481,-172 244,-59 479,-59 625,0 954,420 330,420 377,1277 -181,-269 -460,-413 -278,-144 -615,-144 -700,0 -1108,423 -408,424 -408,1159 0,718 425,1152 425,435 1131,435 810,0 1236,-621 427,-620 427,-1801 Q 3622,1225 3098,567 2575,-91 1691,-91 1453,-91 1209,-44 966,3 703,97 Z m 1256,1978 q 425,0 673,290 249,291 249,798 0,503 -249,795 -248,292 -673,292 -425,0 -673,-292 -248,-292 -248,-795 0,-507 248,-798 248,-290 673,-290 z"
                   transform="scale(0.015625)" />
              </defs>
              <use
                 xlink:href="#DejaVuSans-39"
                 id="use15" />
            </g>
          </g>
        </g>
        <g
           id="xtick_8">
          <g
             id="line2d_8">
            <g
               id="g16">
              <use
                 xlink:href="#mcbf9130591"
                 x="182.12032"
                 y="100.95844"
                 style="stroke:#000000;stroke-width:0.8"
                 id="use16" />
            </g>
          </g>
          <g
             id="text_8">
            <!-- 10 -->
            <g
               transform="matrix(0.1,0,0,-0.1,175.75781,115.55688)"
               id="g18">
              <defs
                 id="defs16">
                <path
                   id="DejaVuSans-31"
                   d="M 794,531 H 1825 V 4091 L 703,3866 v 575 l 1116,225 h 631 V 531 H 3481 V 0 H 794 Z"
                   transform="scale(0.015625)" />
                <path
                   id="DejaVuSans-30"
                   d="m 2034,4250 q -487,0 -733,-480 -245,-479 -245,-1442 0,-959 245,-1439 246,-480 733,-480 491,0 736,480 246,480 246,1439 0,963 -246,1442 -245,480 -736,480 z m 0,500 q 785,0 1199,-621 414,-620 414,-1801 0,-1178 -414,-1799 -414,-620 -1199,-620 -784,0 -1198,620 -414,621 -414,1799 0,1181 414,1801 414,621 1198,621 z"
                   transform="scale(0.015625)" />
              </defs>
              <use
                 xlink:href="#DejaVuSans-31"
                 id="use17" />
              <use
                 xlink:href="#DejaVuSans-30"
                 x="63.623047"
                 id="use18" />
            </g>
          </g>
        </g>
        <g
           id="xtick_9">
          <g
             id="line2d_9">
            <g
               id="g19">
              <use
                 xlink:href="#mcbf9130591"
                 x="200.2372"
                 y="100.95844"
                 style="stroke:#000000;stroke-width:0.8"
                 id="use19" />
            </g>
          </g>
          <g
             id="text_9">
            <!-- 11 -->
            <g
               transform="matrix(0.1,0,0,-0.1,193.8747,115.55688)"
               id="g21">
              <use
                 xlink:href="#DejaVuSans-31"
                 id="use20" />
              <use
                 xlink:href="#DejaVuSans-31"
                 x="63.623047"
                 id="use21" />
            </g>
          </g>
        </g>
        <g
           id="xtick_10">
          <g
             id="line2d_10">
            <g
               id="g22">
              <use
                 xlink:href="#mcbf9130591"
                 x="218.35408"
                 y="100.95844"
                 style="stroke:#000000;stroke-width:0.8"
                 id="use22" />
            </g>
          </g>
          <g
             id="text_10">
            <!-- 12 -->
            <g
               transform="matrix(0.1,0,0,-0.1,211.99158,115.55688)"
               id="g24">
              <defs
                 id="defs22">
                <path
                   id="DejaVuSans-32"
                   d="M 1228,531 H 3431 V 0 H 469 v 531 q 359,372 979,998 621,627 780,809 303,340 423,576 121,236 121,464 0,372 -261,606 -261,235 -680,235 -297,0 -627,-103 -329,-103 -704,-313 v 638 q 381,153 712,231 332,78 607,78 725,0 1156,-363 431,-362 431,-968 0,-288 -108,-546 -107,-257 -392,-607 -78,-91 -497,-524 Q 1991,1309 1228,531 Z"
                   transform="scale(0.015625)" />
              </defs>
              <use
                 xlink:href="#DejaVuSans-31"
                 id="use23" />
              <use
                 xlink:href="#DejaVuSans-32"
                 x="63.623047"
                 id="use24" />
            </g>
          </g>
        </g>
        <g
           id="xtick_11">
          <g
             id="line2d_11">
            <g
               id="g25">
              <use
                 xlink:href="#mcbf9130591"
                 x="236.47096"
                 y="100.95844"
                 style="stroke:#000000;stroke-width:0.8"
                 id="use25" />
            </g>
          </g>
          <g
             id="text_11">
            <!-- 13 -->
            <g
               transform="matrix(0.1,0,0,-0.1,230.10846,115.55688)"
               id="g27">
              <use
                 xlink:href="#DejaVuSans-31"
                 id="use26" />
              <use
                 xlink:href="#DejaVuSans-33"
                 x="63.623047"
                 id="use27" />
            </g>
          </g>
        </g>
        <g
           id="xtick_12">
          <g
             id="line2d_12">
            <g
               id="g28">
              <use
                 xlink:href="#mcbf9130591"
                 x="254.58784"
                 y="100.95844"
                 style="stroke:#000000;stroke-width:0.8"
                 id="use28" />
            </g>
          </g>
          <g
             id="text_12">
            <!-- 14 -->
            <g
               transform="matrix(0.1,0,0,-0.1,248.22534,115.55688)"
               id="g30">
              <use
                 xlink:href="#DejaVuSans-31"
                 id="use29" />
              <use
                 xlink:href="#DejaVuSans-34"
                 x="63.623047"
                 id="use30" />
            </g>
          </g>
        </g>
        <g
           id="xtick_13">
          <g
             id="line2d_13">
            <g
               id="g31">
              <use
                 xlink:href="#mcbf9130591"
                 x="272.70474"
                 y="100.95844"
                 style="stroke:#000000;stroke-width:0.8"
                 id="use31" />
            </g>
          </g>
          <g
             id="text_13">
            <!-- 15 -->
            <g
               transform="matrix(0.1,0,0,-0.1,266.34223,115.55688)"
               id="g33">
              <use
                 xlink:href="#DejaVuSans-31"
                 id="use32" />
              <use
                 xlink:href="#DejaVuSans-35"
                 x="63.623047"
                 id="use33" />
            </g>
          </g>
        </g>
        <g
           id="xtick_14">
          <g
             id="line2d_14">
            <g
               id="g34">
              <use
                 xlink:href="#mcbf9130591"
                 x="290.82162"
                 y="100.95844"
                 style="stroke:#000000;stroke-width:0.8"
                 id="use34" />
            </g>
          </g>
          <g
             id="text_14">
            <!-- 16 -->
            <g
               transform="matrix(0.1,0,0,-0.1,284.45911,115.55688)"
               id="g36">
              <use
                 xlink:href="#DejaVuSans-31"
                 id="use35" />
              <use
                 xlink:href="#DejaVuSans-36"
                 x="63.623047"
                 id="use36" />
            </g>
          </g>
        </g>
        <g
           id="xtick_15">
          <g
             id="line2d_15">
            <g
               id="g37">
              <use
                 xlink:href="#mcbf9130591"
                 x="308.93851"
                 y="100.95844"
                 style="stroke:#000000;stroke-width:0.8"
                 id="use37" />
            </g>
          </g>
          <g
             id="text_15">
            <!-- 17 -->
            <g
               transform="matrix(0.1,0,0,-0.1,302.57599,115.55688)"
               id="g39">
              <use
                 xlink:href="#DejaVuSans-31"
                 id="use38" />
              <use
                 xlink:href="#DejaVuSans-37"
                 x="63.623047"
                 id="use39" />
            </g>
          </g>
        </g>
        <g
           id="text_16">
          <!-- # qubits -->
          <g
             transform="matrix(0.1,0,0,-0.1,160.87031,129.235)"
             id="g47">
            <defs
               id="defs39">
              <path
                 id="DejaVuSans-23"
                 d="M 3272,2816 H 2363 L 2100,1772 h 916 z M 2803,4594 2478,3297 h 913 l 328,1297 h 500 L 3897,3297 h 975 V 2816 H 3775 L 3519,1772 h 994 V 1294 H 3397 L 3072,0 h -500 l 322,1294 H 1978 L 1656,0 h -503 l 325,1294 H 494 v 478 h 1100 l 262,1044 H 850 v 481 h 1128 l 319,1297 z"
                 transform="scale(0.015625)" />
              <path
                 id="DejaVuSans-20"
                 transform="scale(0.015625)"
                 d="" />
              <path
                 id="DejaVuSans-71"
                 d="m 947,1747 q 0,-634 261,-995 261,-361 717,-361 456,0 718,361 263,361 263,995 0,634 -263,995 -262,361 -718,361 -456,0 -717,-361 Q 947,2381 947,1747 Z M 2906,525 Q 2725,213 2448,61 2172,-91 1784,-91 1150,-91 751,415 353,922 353,1747 q 0,825 398,1331 399,506 1033,506 388,0 664,-152 277,-151 458,-463 v 531 h 575 v -4831 h -575 z"
                 transform="scale(0.015625)" />
              <path
                 id="DejaVuSans-75"
                 d="m 544,1381 v 2119 h 575 V 1403 q 0,-497 193,-746 194,-248 582,-248 465,0 735,297 271,297 271,810 v 1984 h 575 V 0 H 2900 V 538 Q 2691,219 2414,64 2138,-91 1772,-91 1169,-91 856,284 544,659 544,1381 Z m 1447,2203 z"
                 transform="scale(0.015625)" />
              <path
                 id="DejaVuSans-62"
                 d="m 3116,1747 q 0,634 -261,995 -261,361 -717,361 -457,0 -718,-361 -261,-361 -261,-995 0,-634 261,-995 261,-361 718,-361 456,0 717,361 261,361 261,995 z M 1159,2969 q 182,312 458,463 277,152 661,152 638,0 1036,-506 399,-506 399,-1331 Q 3713,922 3314,415 2916,-91 2278,-91 1894,-91 1617,61 1341,213 1159,525 V 0 H 581 v 4863 h 578 z"
                 transform="scale(0.015625)" />
              <path
                 id="DejaVuSans-69"
                 d="m 603,3500 h 575 V 0 H 603 Z m 0,1363 h 575 V 4134 H 603 Z"
                 transform="scale(0.015625)" />
              <path
                 id="DejaVuSans-74"
                 d="M 1172,4494 V 3500 H 2356 V 3053 H 1172 V 1153 q 0,-428 117,-550 117,-122 477,-122 h 590 V 0 H 1766 Q 1100,0 847,248 594,497 594,1153 V 3053 H 172 v 447 h 422 v 994 z"
                 transform="scale(0.015625)" />
              <path
                 id="DejaVuSans-73"
                 d="m 2834,3397 v -544 q -243,125 -506,187 -262,63 -544,63 -428,0 -642,-131 -214,-131 -214,-394 0,-200 153,-314 153,-114 616,-217 l 197,-44 q 612,-131 870,-370 258,-239 258,-667 0,-488 -386,-773 Q 2250,-91 1575,-91 1294,-91 989,-36 684,19 347,128 v 594 q 319,-166 628,-249 309,-82 613,-82 406,0 624,139 219,139 219,392 0,234 -158,359 -157,125 -692,241 l -200,47 q -534,112 -772,345 -237,233 -237,639 0,494 350,762 350,269 994,269 318,0 599,-47 282,-46 519,-140 z"
                 transform="scale(0.015625)" />
            </defs>
            <use
               xlink:href="#DejaVuSans-23"
               id="use40" />
            <use
               xlink:href="#DejaVuSans-20"
               x="83.789062"
               id="use41" />
            <use
               xlink:href="#DejaVuSans-71"
               x="115.57617"
               id="use42" />
            <use
               xlink:href="#DejaVuSans-75"
               x="179.05273"
               id="use43" />
            <use
               xlink:href="#DejaVuSans-62"
               x="242.43164"
               id="use44" />
            <use
               xlink:href="#DejaVuSans-69"
               x="305.9082"
               id="use45" />
            <use
               xlink:href="#DejaVuSans-74"
               x="333.69141"
               id="use46" />
            <use
               xlink:href="#DejaVuSans-73"
               x="372.90039"
               id="use47" />
          </g>
        </g>
      </g>
      <g
         id="matplotlib.axis_2">
        <g
           id="ytick_1">
          <g
             id="line2d_16">
            <defs
               id="defs47">
              <path
                 id="m46446e4f23"
                 d="M 0,0 H -3.5"
                 style="stroke:#000000;stroke-width:0.8" />
            </defs>
            <g
               id="g48">
              <use
                 xlink:href="#m46446e4f23"
                 x="42.620312"
                 y="99.306885"
                 style="stroke:#000000;stroke-width:0.8"
                 id="use48" />
            </g>
          </g>
          <g
             id="text_17">
            <!-- −4 -->
            <g
               transform="matrix(0.1,0,0,-0.1,20.878125,103.1061)"
               id="g50">
              <defs
                 id="defs48">
                <path
                   id="DejaVuSans-2212"
                   d="M 678,2272 H 4684 V 1741 H 678 Z"
                   transform="scale(0.015625)" />
              </defs>
              <use
                 xlink:href="#DejaVuSans-2212"
                 id="use49" />
              <use
                 xlink:href="#DejaVuSans-34"
                 x="83.789062"
                 id="use50" />
            </g>
          </g>
        </g>
        <g
           id="ytick_2">
          <g
             id="line2d_17">
            <g
               id="g51">
              <use
                 xlink:href="#m46446e4f23"
                 x="42.620312"
                 y="65.147987"
                 style="stroke:#000000;stroke-width:0.8"
                 id="use51" />
            </g>
          </g>
          <g
             id="text_18">
            <!-- −2 -->
            <g
               transform="matrix(0.1,0,0,-0.1,20.878125,68.947202)"
               id="g53">
              <use
                 xlink:href="#DejaVuSans-2212"
                 id="use52" />
              <use
                 xlink:href="#DejaVuSans-32"
                 x="83.789062"
                 id="use53" />
            </g>
          </g>
        </g>
        <g
           id="ytick_3">
          <g
             id="line2d_18">
            <g
               id="g54">
              <use
                 xlink:href="#m46446e4f23"
                 x="42.620312"
                 y="30.989082"
                 style="stroke:#000000;stroke-width:0.8"
                 id="use54" />
            </g>
          </g>
          <g
             id="text_19">
            <!-- 0 -->
            <g
               transform="matrix(0.1,0,0,-0.1,29.257813,34.788302)"
               id="g55">
              <use
                 xlink:href="#DejaVuSans-30"
                 id="use55" />
            </g>
          </g>
        </g>
        <g
           id="text_20">
          <!-- $F$ -->
          <g
             transform="matrix(0,-0.1,-0.1,0,14.798438,62.278438)"
             id="g56">
            <defs
               id="defs55">
              <path
                 id="DejaVuSans-Oblique-46"
                 d="M 1081,4666 H 3756 L 3653,4134 H 1606 L 1338,2759 H 3188 L 3084,2228 H 1234 L 800,0 H 172 Z"
                 transform="scale(0.015625)" />
            </defs>
            <use
               xlink:href="#DejaVuSans-Oblique-46"
               transform="translate(0,0.09375)"
               id="use56" />
          </g>
        </g>
        <g
           id="text_21">
          <!-- 1e−7+1 -->
          <g
             transform="matrix(0.1,0,0,-0.1,42.620313,14.798438)"
             id="g62">
            <defs
               id="defs56">
              <path
                 id="DejaVuSans-65"
                 d="M 3597,1894 V 1613 H 953 q 38,-594 358,-905 320,-311 892,-311 331,0 642,81 311,81 618,244 V 178 Q 3153,47 2828,-22 2503,-91 2169,-91 1331,-91 842,396 353,884 353,1716 q 0,859 464,1363 464,505 1252,505 706,0 1117,-455 411,-454 411,-1235 z m -575,169 q -6,471 -264,752 -258,282 -683,282 -481,0 -770,-272 -289,-272 -333,-766 z"
                 transform="scale(0.015625)" />
              <path
                 id="DejaVuSans-2b"
                 d="M 2944,4013 V 2272 H 4684 V 1741 H 2944 V 0 H 2419 V 1741 H 678 v 531 h 1741 v 1741 z"
                 transform="scale(0.015625)" />
            </defs>
            <use
               xlink:href="#DejaVuSans-31"
               id="use57" />
            <use
               xlink:href="#DejaVuSans-65"
               x="63.623047"
               id="use58" />
            <use
               xlink:href="#DejaVuSans-2212"
               x="125.14648"
               id="use59" />
            <use
               xlink:href="#DejaVuSans-37"
               x="208.93555"
               id="use60" />
            <use
               xlink:href="#DejaVuSans-2b"
               x="272.55859"
               id="use61" />
            <use
               xlink:href="#DejaVuSans-31"
               x="356.34766"
               id="use62" />
          </g>
        </g>
      </g>
      <g
         id="line2d_19">
        <path
           d="m 55.302131,47.680557 18.116883,4.916848 18.116883,-4.727057 18.116883,9.326199 18.11688,11.669324 18.11689,1.067546 18.11688,-1.80009 18.11688,-4.700035 18.11689,17.942902 18.11688,-13.527306 18.11688,11.618154 18.11688,2.318093 18.11689,9.966064 18.11688,1.44383 18.11688,3.983409"
           clip-path="url(#p3766e7b85d)"
           style="fill:none;stroke:#1f77b4;stroke-width:1.5;stroke-linecap:square"
           id="path62" />
      </g>
      <g
         id="line2d_20">
        <path
           d="m 55.302131,36.174609 18.116883,-0.31781 18.116883,-7.460941 18.116883,1.625567 18.11688,7.427633 18.11689,-0.161666 18.11688,-8.750666 18.11688,-6.958288 18.11689,13.963925 18.11688,-13.821256 18.11688,4.551738 18.11688,2.343493 18.11689,2.314793 18.11688,-1.618809 18.11688,1.722966"
           clip-path="url(#p3766e7b85d)"
           style="fill:none;stroke:#ff7f0e;stroke-width:1.5;stroke-linecap:square"
           id="path63" />
      </g>
      <g
         id="patch_3">
        <path
           d="M 42.620313,100.95844 V 17.798438"
           style="fill:none;stroke:#000000;stroke-width:0.8;stroke-linecap:square;stroke-linejoin:miter"
           id="path64" />
      </g>
      <g
         id="patch_4">
        <path
           d="M 321.62031,100.95844 V 17.798438"
           style="fill:none;stroke:#000000;stroke-width:0.8;stroke-linecap:square;stroke-linejoin:miter"
           id="path65" />
      </g>
      <g
         id="patch_5">
        <path
           d="M 42.620313,100.95844 H 321.62031"
           style="fill:none;stroke:#000000;stroke-width:0.8;stroke-linecap:square;stroke-linejoin:miter"
           id="path66" />
      </g>
      <g
         id="patch_6">
        <path
           d="M 42.620313,17.798438 H 321.62031"
           style="fill:none;stroke:#000000;stroke-width:0.8;stroke-linecap:square;stroke-linejoin:miter"
           id="path67" />
      </g>
      <g
         id="legend_1">
        <g
           id="patch_7">
          <path
             d="m 49.620313,95.958438 h 57.326567 q 2,0 2,-2 V 65.602187 q 0,-2 -2,-2 H 49.620313 q -2,0 -2,2 v 28.356251 q 0,2 2,2 z"
             style="opacity:0.8;fill:#ffffff;stroke:#cccccc;stroke-linejoin:miter"
             id="path68" />
        </g>
        <g
           id="line2d_21">
          <path
             d="m 51.620313,71.700625 h 10 10"
             style="fill:none;stroke:#1f77b4;stroke-width:1.5;stroke-linecap:square"
             id="path69" />
        </g>
        <g
           id="text_22">
          <!-- FP32 -->
          <g
             transform="matrix(0.1,0,0,-0.1,79.620313,75.200625)"
             id="g72">
            <defs
               id="defs69">
              <path
                 id="DejaVuSans-46"
                 d="M 628,4666 H 3309 V 4134 H 1259 V 2759 H 3109 V 2228 H 1259 V 0 H 628 Z"
                 transform="scale(0.015625)" />
              <path
                 id="DejaVuSans-50"
                 d="M 1259,4147 V 2394 h 794 q 441,0 681,228 241,228 241,650 0,419 -241,647 -240,228 -681,228 z m -631,519 h 1425 q 785,0 1186,-355 402,-355 402,-1039 0,-691 -402,-1044 -401,-353 -1186,-353 H 1259 V 0 H 628 Z"
                 transform="scale(0.015625)" />
            </defs>
            <use
               xlink:href="#DejaVuSans-46"
               id="use69" />
            <use
               xlink:href="#DejaVuSans-50"
               x="57.519531"
               id="use70" />
            <use
               xlink:href="#DejaVuSans-33"
               x="117.82227"
               id="use71" />
            <use
               xlink:href="#DejaVuSans-32"
               x="181.44531"
               id="use72" />
          </g>
        </g>
        <g
           id="line2d_22">
          <path
             d="m 51.620313,86.37875 h 10 10"
             style="fill:none;stroke:#ff7f0e;stroke-width:1.5;stroke-linecap:square"
             id="path72" />
        </g>
        <g
           id="text_23">
          <!-- FX32 -->
          <g
             transform="matrix(0.1,0,0,-0.1,79.620313,89.87875)"
             id="g76">
            <defs
               id="defs72">
              <path
                 id="DejaVuSans-58"
                 d="m 403,4666 h 678 L 2241,2931 3406,4666 h 678 L 2584,2425 4184,0 H 3506 L 2194,1984 872,0 H 191 l 1665,2491 z"
                 transform="scale(0.015625)" />
            </defs>
            <use
               xlink:href="#DejaVuSans-46"
               id="use73" />
            <use
               xlink:href="#DejaVuSans-58"
               x="57.519531"
               id="use74" />
            <use
               xlink:href="#DejaVuSans-33"
               x="126.02539"
               id="use75" />
            <use
               xlink:href="#DejaVuSans-32"
               x="189.64844"
               id="use76" />
          </g>
        </g>
      </g>
    </g>
  </g>
  <defs
     id="defs76">
    <clipPath
       id="p3766e7b85d">
      <rect
         x="42.620312"
         y="17.798437"
         width="279"
         height="83.160004"
         id="rect76" />
    </clipPath>
  </defs>
</svg>
